# AST/ASF file generated using VICON BodyLanguage
# -----------------------------------------------
:version 1.10
:name VICON
:units
  mass 1.0
  length 0.45
  angle deg
:documentation
   .ast/.asf automatically generated from VICON data using
   VICON BodyBuilder and BodyLanguage model FoxedUp or BRILLIANT.MOD
:root
   order TX TY TZ RX RY RZ
   axis XYZ
   position 0 0 0  
   orientation 0 0 0 
:bonedata
  begin
     id 1 
     name lhipjoint
     direction 0.528046 -0.759594 0.379717 
     length 2.39752 
     axis 0 0 0  XYZ
  end
  begin
     id 2 
     name lfemur
     direction 0.34202 -0.939693 0  
     length 7.31175  
     axis 0 0 20  XYZ
    dof rx ry rz
    limits (-160.0 20.0)
           (-70.0 70.0)
           (-60.0 70.0)
  end
  begin
     id 3 
     name ltibia
     direction 0.34202 -0.939693 0   
     length 7.52482   
     axis 0 0 20   XYZ
    dof rx
    limits (-10.0 170.0)
  end
  begin
     id 4 
     name lfoot
     direction 0.0675379 -0.185559 0.980309   
     length 2.00961   
     axis -90 7.62852e-016 20   XYZ
    dof rx rz
    limits (-45.0 90.0)
           (-70.0 20.0)
  end
  begin
     id 5 
     name ltoes
     direction 1.5352e-011 -4.22286e-011 1   
     length 1.01383   
     axis -90 7.62852e-016 20   XYZ
    dof rx
    limits (-90.0 20.0)
  end
  begin
     id 6 
     name rhipjoint
     direction -0.510274 -0.769251 0.384544   
     length 2.36742  
     axis 0 0 0  XYZ 
  end
  begin
     id 7 
     name rfemur
     direction -0.34202 -0.939693 0   
     length 7.45325   
     axis 0 0 -20   XYZ
    dof rx ry rz
    limits (-160.0 20.0)
           (-70.0 70.0)
           (-70.0 60.0)
  end
  begin
     id 8 
     name rtibia
     direction -0.34202 -0.939693 0   
     length 7.49587   
     axis 0 0 -20   XYZ
    dof rx
    limits (-10.0 170.0)
 end
 begin
     id 9 
     name rfoot
     direction -0.106475 -0.292536 0.950308   
     length 2.20898  
     axis -90 -7.62852e-016 -20   XYZ
    dof rx rz
    limits (-45.0 90.0)
           (-20.0 70.0)
  end
  begin
     id 10 
     name rtoes
     direction -1.53597e-011 -4.22023e-011 1   
     length 1.10065   
     axis -90 -7.62852e-016 -20   XYZ
    dof rx
    limits (-90.0 20.0)
  end
  begin
     id 11 
     name lowerback
     direction 0.0260024 0.998026 -0.0571652   
     length 2.11214   
     axis 0 0 0   XYZ
    dof rx ry rz
    limits (-20.0 45.0)
           (-30.0 30.0)
           (-30.0 30.0)
  end
  begin
     id 12 
     name upperback
     direction 0.0216202 0.999542 -0.0211766   
     length 2.11689   
     axis 0 0 0   XYZ
    dof rx ry rz
    limits (-20.0 45.0)
           (-30.0 30.0)
           (-30.0 30.0)
  end
  begin
     id 13 
     name thorax
     direction 0.00883312 0.999944 0.00589057   
     length 2.11821   
     axis 0 0 0   XYZ
    dof rx ry rz
    limits (-20.0 45.0)
           (-30.0 30.0)
           (-30.0 30.0)
  end
  begin
     id 14 
     name lowerneck
     direction -0.059386 0.994433 0.0870401   
     length 1.81176   
     axis 0 0 0   XYZ
    dof rx ry rz
    limits (-20.0 45.0)
           (-30.0 30.0)
           (-30.0 30.0)
  end
  begin
     id 15 
     name upperneck
     direction 0.0506457 0.97328 -0.223967   
     length 1.82382   
     axis 0 0 0   XYZ
    dof rx ry rz
    limits (-20.0 45.0)
           (-30.0 30.0)
           (-30.0 30.0)
  end
  begin
     id 16
     name head
     direction 0.0205902 0.996147 -0.0852487  
     length 1.84805  
     axis 0 0 0   XYZ
    dof rx ry rz
    limits (-20.0 45.0)
           (-30.0 30.0)
           (-30.0 30.0)
  end
  begin
     id 17 
     name lclavicle
     direction 0.949493 0.303881 -0.0782325  
     length 3.60584  
     axis 0 0 0   XYZ
    dof ry rz
    limits (-20.0 10.0)
           (0.0 20.0)
  end
  begin
     id 18 
     name lhumerus
     direction 1 -4.48965e-011 1.48782e-027   
     length 4.95681   
     axis 180 -30 -90   XYZ
    dof rx ry rz
    limits (-60.0 90.0)
           (-90.0 90.0)
           (-90.0 90.0)
  end
  begin
     id 19
     name lradius
     direction 1 -4.48952e-011 2.06528e-027   
     length 3.40915   
     axis 180 -30 -90   XYZ
    dof rx
    limits (-10.0 170.0)
  end
  begin
     id 20
     name lwrist
     direction 1 -4.48964e-011 1.28021e-027   
     length 1.70457   
     axis -1.61767e-015 90 90   XYZ
    dof ry
    limits (-180.0 0.0)
 end
  begin
     id 21 
     name lhand
     direction 1 -4.49094e-011 2.54887e-027   
     length 0.616403   
     axis -1.63363e-015 90 90   XYZ
    dof rx rz
    limits (-90.0 90.0)
           (-45.0 45.0)
  end
  begin
     id 22 
     name lfingers
     direction 1 -4.49002e-011 5.11407e-027   
     length 0.49696   
     axis -3.26723e-015 90 90   XYZ
    dof rx
    limits (0.0 90.0)
  end
  begin
     id 23
     name lthumb
     direction 0.707107 -6.34998e-011 0.707107   
     length 0.713539   
     axis -90 45 -2.25915e-014   XYZ
    dof rx rz
    limits (-45.0 45.0)
           (-45.0 45.0)
  end
  begin
     id 24 
     name rclavicle
     direction -0.937751 0.334612 -0.0930482   
     length 3.46287  
     axis 0 0 0   XYZ 
    dof ry rz
    limits (-10.0 20.0)
           (-20.0 0.0)
  end
  begin
     id 25 
     name rhumerus
     direction -1 -4.48962e-011 3.59972e-027  
     length 5.352   
     axis 180 30 90   XYZ
    dof rx ry rz
    limits (-90.0 60.0)
           (-90.0 90.0)
           (-90.0 90.0)
  end
  begin
     id 26 
     name rradius
     direction -1 -4.48987e-011 -3.76925e-027   
     length 3.43721   
     axis 180 30 90   XYZ
    dof rx
    limits (-10.0 170.0)
  end
  begin
     id 27 
     name rwrist
     direction -1 -4.48943e-011 1.28112e-027   
     length 1.7186   
     axis -1.61767e-015 -90 -90   XYZ
    dof ry
    limits (-180.0 0.0)
  end
  begin
     id 28
     name rhand
     direction -1 -4.49027e-011 2.55483e-027   
     length 0.72009   
     axis -1.63363e-015 -90 -90   XYZ
    dof rx rz
    limits (-90.0 90.0)
           (-45.0 45.0)
  end
  begin
     id 29
     name rfingers
     direction -1 -4.48827e-011 5.14506e-027   
     length 0.580555   
     axis -3.26723e-015 -90 -90   XYZ
    dof rx
    limits (0.0 90.0)
  end
  begin
     id 30
     name rthumb
     direction -0.707107 -6.34936e-011 0.707107   
     length 0.833564   
     axis -90 -45 2.25915e-014   XYZ
    dof rx rz
    limits (-45.0 45.0)
           (-45.0 45.0)
  end
:hierarchy
  begin
    root lhipjoint rhipjoint lowerback
    lhipjoint lfemur
    lfemur ltibia
    ltibia lfoot
    lfoot ltoes
    rhipjoint rfemur
    rfemur rtibia
    rtibia rfoot
    rfoot rtoes
    lowerback upperback
    upperback thorax
    thorax lowerneck lclavicle rclavicle
    lowerneck upperneck
    upperneck head
    lclavicle lhumerus
    lhumerus lradius
    lradius lwrist
    lwrist lhand lthumb
    lhand lfingers
    rclavicle rhumerus
    rhumerus rradius
    rradius rwrist
    rwrist rhand rthumb
    rhand rfingers
  end

#!OML:ASF H:\Terrain\Patient Classification 1\Terrain2\Thursday\justin.ASF
:FULLY-SPECIFIED
:DEGREES
512
root 1.16241 19.9715 -11.3722 -179.535 66.2871 -167.026
lowerback 6.15293 1.69563 -6.6898
upperback 4.7545 2.13822 0.960575
thorax 1.21876 0.977291 4.64181
lowerneck -7.46589 -7.02446 -11.2461
upperneck 39.7621 -8.34452 8.21274
head 16.4631 -3.2585 4.58776
rclavicle 6.14742e-014 -1.27222e-014
rhumerus -38.6473 -13.771 -77.8167
rradius 24.7143
rwrist -7.22356
rhand -16.5682 12.9501
rfingers 7.12502
rthumb 9.65198 -16.8088
lclavicle 6.14742e-014 -1.27222e-014
lhumerus -35.0747 8.59288 72.1208
lradius 30.3382
lwrist 3.80626
lhand -16.5245 20.7555
lfingers 7.12502
lthumb 9.69413 50.5124
rfemur -46.3281 -23.0193 18.797
rtibia 45.4988
rfoot 18.1869 -5.36344
rtoes 12.7217
lfemur 19.6256 -8.05189 -17.5205
ltibia 18.1484
lfoot -19.1185 -15.1895
ltoes 22.5506
513
root 1.27137 19.9609 -11.383 -180.718 65.8542 -168.29
lowerback 5.82897 1.60541 -7.22488
upperback 4.73391 2.01764 0.80671
thorax 1.38661 0.899278 4.79881
lowerneck -7.29699 -7.02168 -11.5801
upperneck 39.7807 -8.34613 8.43816
head 16.4725 -3.28006 4.75753
rclavicle -8.82107e-015 -2.54444e-014
rhumerus -38.755 -13.3188 -77.9724
rradius 24.6875
rwrist -7.25819
rhand -17.0997 12.7396
rfingers 7.12502
rthumb 9.13915 -17.0423
lclavicle -8.82107e-015 -2.54444e-014
lhumerus -35.0733 8.44873 71.9974
lradius 30.258
lwrist 4.28893
lhand -16.9422 20.7372
lfingers 7.12502
lthumb 9.2911 50.5125
rfemur -45.968 -23.0014 17.5821
rtibia 44.1669
rfoot 18.016 -7.08438
rtoes 18.6611
lfemur 20.3586 -8.61898 -18.1985
ltibia 17.4929
lfoot -19.2193 -14.8334
ltoes 22.5814
514
root 1.39885 19.9649 -11.3736 -177.348 65.9872 -164.094
lowerback 5.7783 1.76376 -5.63288
upperback 4.84915 2.30034 1.21335
thorax 1.52334 1.06909 4.31369
lowerneck -7.09191 -7.11406 -11.755
upperneck 39.8467 -8.50054 8.59892
head 16.5082 -3.34664 4.84787
rclavicle 4.5472e-015 -7.95139e-015
rhumerus -38.9483 -13.6445 -77.8635
rradius 24.5816
rwrist -6.73336
rhand -16.8617 13.143
rfingers 7.12502
rthumb 9.36877 -16.6288
lclavicle 4.5472e-015 -7.95139e-015
lhumerus -35.3964 9.10544 71.4321
lradius 30.8275
lwrist 3.43977
lhand -16.9366 20.7764
lfingers 7.12502
lthumb 9.29652 50.5515
rfemur -44.6407 -21.0117 18.199
rtibia 42.7578
rfoot 16.6709 -10.5339
rtoes 27.2394
lfemur 21.6397 -8.83176 -16.3017
ltibia 16.9609
lfoot -19.1674 -14.8189
ltoes 23.5958
515
root 1.52168 19.9195 -11.3629 -179.515 65.6171 -166.714
lowerback 5.30523 1.84486 -6.84795
upperback 4.70796 2.38315 0.916611
thorax 1.60661 1.07999 4.69734
lowerneck -6.73518 -7.21596 -11.9058
upperneck 39.7921 -8.68107 8.73694
head 16.4413 -3.42664 4.91291
rclavicle 8.00108e-015 1.59028e-014
rhumerus -39.225 -13.748 -77.7346
rradius 24.5669
rwrist -6.4464
rhand -16.4548 13.5735
rfingers 7.12502
rthumb 9.76142 -16.1803
lclavicle 8.00108e-015 1.59028e-014
lhumerus -35.99 10.0708 70.8108
lradius 31.8352
lwrist 2.2509
lhand -16.1793 21.079
lfingers 7.12502
lthumb 10.0272 50.8201
rfemur -45.1673 -21.7097 17.552
rtibia 41.4274
rfoot 18.7391 -8.5856
rtoes 18.9925
lfemur 22.0611 -9.53713 -17.5633
ltibia 16.4649
lfoot -19.1342 -14.5089
ltoes 24.7406
516
root 1.64506 19.8797 -11.3608 -179.754 65.4259 -167.008
lowerback 4.9497 1.95071 -7.08613
upperback 4.64415 2.53569 0.891616
thorax 1.71163 1.14588 4.80892
lowerneck -6.53004 -7.33606 -12.037
upperneck 39.8423 -8.85182 8.79655
head 16.4627 -3.50592 4.94483
rclavicle -3.48122e-014 -4.45278e-014
rhumerus -39.4153 -13.2889 -77.8554
rradius 24.6723
rwrist -6.63875
rhand -16.6047 12.8207
rfingers 7.12502
rthumb 9.61673 -16.9398
lclavicle -3.48122e-014 -4.45278e-014
lhumerus -36.0938 10.0485 70.6004
lradius 31.8981
lwrist 2.05288
lhand -15.4179 21.4045
lfingers 7.12502
lthumb 10.7617 51.1088
rfemur -45.0738 -21.9252 17.6648
rtibia 39.7369
rfoot 20.1531 -8.03353
rtoes 14.858
lfemur 22.3833 -9.91921 -17.7127
ltibia 16.6923
lfoot -20.0214 -14.1292
ltoes 23.4899
517
root 1.77177 19.8453 -11.3708 -180.431 65.2673 -167.515
lowerback 4.79073 1.9514 -7.27554
upperback 4.63046 2.54336 0.784109
thorax 1.78382 1.14359 4.80838
lowerneck -6.50962 -7.33983 -12.0049
upperneck 40.0825 -8.79777 8.69244
head 16.5732 -3.47966 4.91959
rclavicle -2.54134e-014 9.54166e-015
rhumerus -39.5895 -13.2351 -77.8158
rradius 24.6297
rwrist -6.32251
rhand -16.7401 12.4559
rfingers 7.12502
rthumb 9.48612 -17.3106
lclavicle -2.54134e-014 9.54166e-015
lhumerus -36.0509 9.60645 70.4421
lradius 31.405
lwrist 2.58616
lhand -15.3874 21.7372
lfingers 7.12502
lthumb 10.7911 51.44
rfemur -44.7366 -22.1555 17.2944
rtibia 38.5874
rfoot 20.8228 -8.39014
rtoes 16.0229
lfemur 23.3789 -10.2562 -18.0104
ltibia 16.2225
lfoot -20.4944 -14.0189
ltoes 23.0296
518
root 1.85295 19.85 -11.3115 -173.873 64.9628 -160.554
lowerback 5.10068 1.80397 -4.93227
upperback 4.246 2.36416 1.67041
thorax 1.26676 1.11635 4.39892
lowerneck -6.40531 -7.1864 -12.0172
upperneck 40.2737 -8.52193 8.64517
head 16.6055 -3.36279 4.96381
rclavicle -1.99251e-014 -1.74931e-014
rhumerus -39.8254 -12.9423 -77.7969
rradius 24.6059
rwrist -6.03213
rhand -16.7935 12.9055
rfingers 7.12502
rthumb 9.43455 -16.8633
lclavicle -1.99251e-014 -1.74931e-014
lhumerus -36.4375 9.54839 70.1754
lradius 31.342
lwrist 3.5279
lhand -15.4098 22.8537
lfingers 7.12502
lthumb 10.7695 52.5576
rfemur -44.4456 -19.656 19.6219
rtibia 37.7455
rfoot 19.6775 -12.1523
rtoes 21.2379
lfemur 24 -10.1617 -13.9514
ltibia 14.5976
lfoot -19.9023 -14.628
ltoes 22.2758
519
root 2.01221 19.8028 -11.3485 -179.267 64.9423 -165.932
lowerback 4.70367 1.79753 -7.08348
upperback 4.44186 2.32838 1.01564
thorax 1.66011 1.04166 4.9501
lowerneck -6.2686 -7.15158 -12.1652
upperneck 40.4431 -8.4403 8.70487
head 16.6693 -3.33609 5.04941
rclavicle -4.95036e-014 -3.65764e-014
rhumerus -40.0714 -11.7833 -78.2748
rradius 24.9553
rwrist -7.22722
rhand -17.2759 12.437
rfingers 7.12502
rthumb 8.96915 -17.3523
lclavicle -4.95036e-014 -3.65764e-014
lhumerus -36.7725 9.40852 70.0519
lradius 31.345
lwrist 4.71993
lhand -15.538 23.6811
lfingers 7.12502
lthumb 10.6458 53.3914
rfemur -43.7765 -20.257 16.4671
rtibia 37.1289
rfoot 18.9934 -13.8957
rtoes 27.6285
lfemur 25.992 -10.4663 -16.9199
ltibia 13.0724
lfoot -19.9967 -13.5605
ltoes 20.2977
520
root 2.14501 19.826 -11.3708 -181.03 64.675 -167.86
lowerback 4.1447 1.80529 -7.75727
upperback 4.44523 2.36974 0.695703
thorax 1.96465 1.03697 5.01262
lowerneck -6.1716 -7.22976 -12.237
upperneck 40.6094 -8.54285 8.7552
head 16.7669 -3.37515 5.08578
rclavicle 6.97486e-014 -2.22639e-014
rhumerus -40.3342 -11.2007 -78.604
rradius 25.2175
rwrist -8.15637
rhand -17.4954 11.9389
rfingers 7.12502
rthumb 8.75733 -17.8594
lclavicle 6.97486e-014 -2.22639e-014
lhumerus -36.9462 9.23787 69.8087
lradius 31.3359
lwrist 5.32354
lhand -16.8308 21.7333
lfingers 7.12502
lthumb 9.39856 51.5038
rfemur -42.7495 -18.8117 13.5939
rtibia 36.6634
rfoot 13.7376 -19.7479
rtoes 41.8389
lfemur 27.2654 -10.4649 -17.7503
ltibia 11.3352
lfoot -19.3544 -13.5271
ltoes 19.2067
521
root 2.24985 19.8141 -11.3238 -175.643 64.4672 -162.435
lowerback 3.98023 1.74159 -5.88658
upperback 4.06466 2.29337 1.36893
thorax 1.69377 1.04487 4.6599
lowerneck -6.07478 -7.20841 -12.218
upperneck 40.7914 -8.45608 8.65147
head 16.8235 -3.34031 5.06511
rclavicle -5.61567e-015 3.49861e-014
rhumerus -40.6062 -11.2811 -78.4401
rradius 25.1385
rwrist -7.62609
rhand -17.3771 12.2842
rfingers 7.12502
rthumb 8.87144 -17.5093
lclavicle -5.61567e-015 3.49861e-014
lhumerus -37.5481 9.98329 69.116
lradius 31.7101
lwrist 4.88344
lhand -16.1824 23.0972
lfingers 7.12502
lthumb 10.0242 52.8385
rfemur -43.1626 -17.1501 15.96
rtibia 36.0195
rfoot 13.6321 -20.79
rtoes 40.0509
lfemur 28.0475 -10.9415 -14.696
ltibia 9.16126
lfoot -18.2698 -13.6424
ltoes 18.8425
522
root 2.42485 19.6988 -11.3539 -182.024 64.5286 -168.948
lowerback 3.67351 1.78316 -8.57688
upperback 4.22966 2.34836 0.514489
thorax 1.99111 1.00803 5.29619
lowerneck -5.96517 -7.18323 -12.1727
upperneck 40.925 -8.40652 8.62892
head 16.8587 -3.30867 5.06828
rclavicle -5.02925e-014 4.77083e-015
rhumerus -40.7777 -11.2659 -78.3814
rradius 25.0196
rwrist -7.38151
rhand -17.5069 12.8489
rfingers 7.12502
rthumb 8.74619 -16.9499
lclavicle -5.02925e-014 4.77083e-015
lhumerus -38.054 10.6809 68.3883
lradius 32.021
lwrist 4.56286
lhand -16.5856 22.4306
lfingers 7.12502
lthumb 9.63518 52.1902
rfemur -43.8055 -20.163 14.6461
rtibia 35.3879
rfoot 20.6212 -13.9163
rtoes 23.7192
lfemur 30.0621 -10.8233 -18.0158
ltibia 7.70378
lfoot -18.0947 -13.4607
ltoes 19.4811
